<svg xmlns="http://www.w3.org/2000/svg" xmlns:xlink="http://www.w3.org/1999/xlink" width="1000" zoomAndPan="magnify" viewBox="0 0 750 209.249992" height="279" preserveAspectRatio="xMidYMid meet" version="1.2"><defs><clipPath id="deb06acecc"><path d="M 1.339844 0 L 745 0 L 745 208.503906 L 1.339844 208.503906 Z M 1.339844 0 "/></clipPath><clipPath id="7878fdc2cd"><path d="M 0.578125 0 L 211.378906 0 L 211.378906 208.503906 L 0.578125 208.503906 Z M 0.578125 0 "/></clipPath><clipPath id="e9b6f3d2e6"><path d="M 221 0 L 743.117188 0 L 743.117188 208.503906 L 221 208.503906 Z M 221 0 "/></clipPath><clipPath id="c03a2775f7"><rect x="0" width="523" y="0" height="209"/></clipPath><clipPath id="8ad5c1a796"><rect x="0" width="744" y="0" height="209"/></clipPath></defs><g id="0200f90a40"><g clip-rule="nonzero" clip-path="url(#deb06acecc)"><g transform="matrix(1,0,0,1,1,0)"><g clip-path="url(#8ad5c1a796)"><g clip-rule="nonzero" clip-path="url(#7878fdc2cd)"><path style=" stroke:none;fill-rule:evenodd;fill:#ffffff;fill-opacity:1;" d="M 103.3125 0.765625 C 99.019531 1.320312 91.710938 4.285156 87.503906 7.179688 C 85.066406 8.855469 81.679688 12.777344 79.574219 16.363281 C 78.589844 18.039062 75.847656 23.195312 73.476562 27.824219 C 65.648438 43.105469 61.964844 50.203125 59.238281 55.273438 C 57.753906 58.027344 55.597656 62.175781 54.445312 64.488281 C 52.109375 69.171875 45.128906 82.5625 36.796875 98.347656 C 29.042969 113.03125 26.988281 117 19.171875 132.410156 C 15.371094 139.902344 10.851562 148.738281 9.128906 152.042969 C 0.476562 168.644531 -1.085938 179.332031 3.523438 190.402344 C 5.148438 194.300781 7.589844 198.023438 10.125 200.457031 C 12.691406 202.921875 18.871094 205.988281 23.78125 207.230469 L 27.386719 208.144531 L 106.726562 208.144531 C 181.539062 208.144531 186.226562 208.101562 188.855469 207.429688 C 192.496094 206.496094 198.363281 203.679688 200.929688 201.636719 C 204.882812 198.488281 208.644531 192.457031 210.265625 186.679688 C 210.9375 184.273438 211.113281 182.527344 211.113281 178.207031 C 211.113281 167.546875 211.097656 167.511719 178.664062 104.757812 C 173.765625 95.28125 169.085938 86.085938 168.265625 84.324219 C 167.445312 82.558594 165.140625 78.140625 163.144531 74.503906 C 161.152344 70.871094 158.480469 65.820312 157.214844 63.285156 C 155.945312 60.75 154.054688 57.144531 153.015625 55.273438 C 150.90625 51.480469 141.105469 32.421875 135.703125 21.613281 C 131.804688 13.8125 129.132812 9.960938 125.796875 7.339844 C 121.738281 4.152344 116.269531 1.769531 110.761719 0.796875 C 108.167969 0.335938 106.683594 0.328125 103.3125 0.765625 M 110.488281 15.5 C 110.253906 16.109375 109.613281 18.40625 109.066406 20.609375 C 108.515625 22.8125 107.636719 26.242188 107.109375 28.222656 C 105.796875 33.164062 105.4375 36.054688 104.882812 46.046875 C 104.1875 58.691406 104.714844 66.847656 107.140625 80.855469 C 110.347656 99.355469 117.914062 119.527344 127.761719 135.816406 C 133.253906 144.898438 135.359375 147.738281 142.769531 156.050781 C 154.820312 169.5625 168.519531 179.105469 186.023438 186.183594 C 188.449219 187.164062 190.894531 188.191406 191.457031 188.46875 C 192.925781 189.1875 193.664062 188.878906 194.878906 187.042969 C 198.414062 181.699219 198.21875 175.273438 194.269531 166.871094 C 191.359375 160.679688 182.382812 142.5625 180.769531 139.621094 C 177.1875 133.09375 173.824219 126.582031 165.035156 109.167969 C 159.917969 99.03125 155.59375 90.554688 155.429688 90.332031 C 154.945312 89.695312 149.941406 80.066406 146.683594 73.503906 C 145.042969 70.199219 142.300781 64.878906 140.589844 61.683594 C 138.882812 58.488281 135.5 51.996094 133.074219 47.257812 C 130.648438 42.519531 127.59375 36.660156 126.285156 34.234375 C 124.976562 31.808594 122.929688 27.84375 121.738281 25.417969 C 119.492188 20.847656 117.425781 18.316406 113.78125 15.675781 C 111.621094 14.113281 111.039062 14.082031 110.488281 15.5 M 92.753906 22.714844 C 91.359375 24.132812 88.15625 29.625 84.398438 37.039062 C 82.277344 41.226562 78.292969 48.980469 75.542969 54.269531 C 72.796875 59.558594 68.90625 67.042969 66.902344 70.898438 C 64.324219 75.851562 61.730469 80.792969 59.121094 85.726562 C 56.847656 90.023438 51.136719 101.023438 46.433594 110.167969 C 41.730469 119.316406 37.066406 128.242188 36.074219 130.003906 C 33.332031 134.867188 21.898438 157.90625 19.867188 162.667969 C 16.59375 170.335938 14.410156 177.890625 15.460938 177.890625 C 15.683594 177.890625 16.976562 175.949219 18.335938 173.582031 C 24.628906 162.601562 35.261719 150.839844 47.386719 141.453125 C 56.875 134.105469 67.945312 128.621094 81.683594 124.472656 C 85.976562 123.171875 95.480469 121.476562 100.394531 121.132812 C 102.460938 120.988281 104.230469 120.742188 104.324219 120.585938 C 104.421875 120.429688 103.871094 118.789062 103.097656 116.9375 C 99.238281 107.679688 94.847656 92.085938 92.898438 80.71875 C 90.867188 68.859375 90.703125 66.785156 90.703125 53.066406 C 90.699219 41.46875 90.8125 39.058594 91.609375 33.433594 C 92.109375 29.90625 92.796875 25.96875 93.140625 24.679688 C 93.839844 22.074219 93.761719 21.6875 92.753906 22.714844 M 108.96875 134.617188 C 108.214844 134.792969 105.960938 135.050781 103.957031 135.191406 C 93.863281 135.890625 86.480469 137.34375 79.089844 140.085938 C 67.203125 144.496094 54.859375 152.582031 45.21875 162.269531 C 38.800781 168.714844 36.199219 171.976562 30.175781 181.121094 C 27.480469 185.214844 25.015625 188.820312 24.699219 189.136719 C 24.386719 189.453125 23.816406 190.183594 23.4375 190.761719 C 22.808594 191.726562 22.804688 191.839844 23.398438 192.066406 C 23.753906 192.203125 24.332031 192.316406 24.675781 192.316406 C 25.023438 192.316406 26.226562 192.742188 27.347656 193.261719 L 29.390625 194.207031 L 99.082031 194.246094 C 137.414062 194.265625 168.941406 194.175781 169.148438 194.050781 C 169.355469 193.921875 166.992188 192.507812 163.902344 190.910156 C 154.601562 186.09375 148.160156 181.214844 138.640625 171.773438 C 126.328125 159.5625 118.429688 149.078125 112.128906 136.597656 C 111.464844 135.285156 110.792969 134.230469 110.628906 134.253906 C 110.46875 134.277344 109.71875 134.4375 108.96875 134.617188 "/></g><g clip-rule="nonzero" clip-path="url(#e9b6f3d2e6)"><g transform="matrix(1,0,0,1,221,0)"><g id="0863c67379" clip-path="url(#c03a2775f7)"><g style="fill:#ffffff;fill-opacity:1;"><g transform="translate(6.150241, 166.652665)"><path style="stroke:none" d="M 8.671875 32.988281 C 35.621094 26.949219 46.460938 13.472656 46.460938 -12.234375 L 46.460938 -123.898438 L 9.292969 -123.898438 L 9.292969 -16.726562 C 9.292969 -5.421875 6.039062 -0.929688 -5.109375 1.546875 Z M 8.671875 32.988281 "/></g></g><g style="fill:#ffffff;fill-opacity:1;"><g transform="translate(54.159846, 166.652665)"><path style="stroke:none" d="M 93.699219 -46.925781 C 93.699219 -80.226562 79.449219 -96.488281 49.871094 -96.488281 C 20.597656 -96.488281 5.730469 -79.605469 5.730469 -46.617188 C 5.730469 -13.007812 21.683594 2.941406 51.261719 2.941406 C 62.257812 2.941406 74.804688 0.773438 88.898438 -4.335938 L 80.691406 -29.734375 C 71.085938 -26.175781 62.105469 -24.316406 54.515625 -24.316406 C 44.292969 -24.316406 38.097656 -27.878906 37.324219 -35.929688 L 93.699219 -35.929688 Z M 50.179688 -71.863281 C 57.457031 -71.863281 61.484375 -68.144531 62.570312 -57.769531 L 37.480469 -57.769531 C 38.71875 -67.988281 42.898438 -71.863281 50.179688 -71.863281 Z M 50.179688 -71.863281 "/></g></g><g style="fill:#ffffff;fill-opacity:1;"><g transform="translate(145.842983, 166.652665)"><path style="stroke:none" d="M 80.535156 -28.808594 C 74.496094 -27.722656 69.382812 -26.949219 65.511719 -26.949219 C 58.386719 -26.949219 54.824219 -29.425781 54.824219 -37.632812 L 54.824219 -66.597656 L 79.761719 -66.597656 L 79.761719 -93.699219 L 54.824219 -93.699219 L 54.824219 -116.777344 L 20.753906 -116.777344 L 20.753906 -93.699219 L 6.039062 -93.699219 L 6.039062 -66.597656 L 20.753906 -66.597656 L 20.753906 -32.832031 C 20.753906 -6.195312 34.382812 2.324219 58.542969 2.324219 C 65.976562 2.324219 74.339844 1.703125 83.324219 0.308594 Z M 80.535156 -28.808594 "/></g></g><g style="fill:#ffffff;fill-opacity:1;"><g transform="translate(220.025507, 166.652665)"><path style="stroke:none" d="M 80.535156 -28.808594 C 74.496094 -27.722656 69.382812 -26.949219 65.511719 -26.949219 C 58.386719 -26.949219 54.824219 -29.425781 54.824219 -37.632812 L 54.824219 -66.597656 L 79.761719 -66.597656 L 79.761719 -93.699219 L 54.824219 -93.699219 L 54.824219 -116.777344 L 20.753906 -116.777344 L 20.753906 -93.699219 L 6.039062 -93.699219 L 6.039062 -66.597656 L 20.753906 -66.597656 L 20.753906 -32.832031 C 20.753906 -6.195312 34.382812 2.324219 58.542969 2.324219 C 65.976562 2.324219 74.339844 1.703125 83.324219 0.308594 Z M 80.535156 -28.808594 "/></g></g><g style="fill:#ffffff;fill-opacity:1;"><g transform="translate(302.261556, 166.652665)"><path style="stroke:none" d="M 5.730469 -33.761719 L 56.839844 -33.761719 L 56.839844 -63.1875 L 5.730469 -63.1875 Z M 5.730469 -33.761719 "/></g></g><g style="fill:#ffffff;fill-opacity:1;"><g transform="translate(357.085451, 166.652665)"><path style="stroke:none" d="M 61.949219 2.632812 C 97.261719 2.632812 114.453125 -12.855469 114.453125 -43.828125 L 114.453125 -123.898438 L 77.902344 -123.898438 L 77.902344 -44.292969 C 77.902344 -33.917969 72.480469 -29.117188 61.949219 -29.117188 C 51.417969 -29.117188 45.996094 -33.917969 45.996094 -44.292969 L 45.996094 -123.898438 L 9.292969 -123.898438 L 9.292969 -43.828125 C 9.292969 -12.855469 26.636719 2.632812 61.949219 2.632812 Z M 61.949219 2.632812 "/></g></g><g style="fill:#ffffff;fill-opacity:1;"><g transform="translate(473.083284, 166.652665)"><path style="stroke:none" d="M 9.292969 0 L 46.460938 0 L 46.460938 -123.898438 L 9.292969 -123.898438 Z M 9.292969 0 "/></g></g></g></g></g></g></g></g></g></svg>