<svg xmlns="http://www.w3.org/2000/svg" xmlns:xlink="http://www.w3.org/1999/xlink" width="500" zoomAndPan="magnify" viewBox="0 0 375 374.999991" height="500" preserveAspectRatio="xMidYMid meet" version="1.2"><defs><clipPath id="9d45f7d738"><path d="M 1 3 L 375 3 L 375 372.925781 L 1 372.925781 Z M 1 3 "/></clipPath></defs><g id="a3052bee73"><g clip-rule="nonzero" clip-path="url(#9d45f7d738)"><path style=" stroke:none;fill-rule:evenodd;fill:#000000;fill-opacity:1;" d="M 182.949219 3.785156 C 175.328125 4.769531 162.335938 10.039062 154.859375 15.179688 C 150.535156 18.15625 144.519531 25.121094 140.777344 31.488281 C 139.027344 34.460938 134.152344 43.621094 129.941406 51.839844 C 116.03125 78.984375 109.492188 91.582031 104.644531 100.585938 C 102.007812 105.480469 98.175781 112.84375 96.128906 116.957031 C 91.980469 125.273438 79.578125 149.058594 64.773438 177.089844 C 51 203.164062 47.351562 210.210938 33.460938 237.578125 C 26.707031 250.886719 18.675781 266.578125 15.613281 272.449219 C 0.246094 301.929688 -2.527344 320.910156 5.660156 340.574219 C 8.546875 347.5 12.886719 354.109375 17.386719 358.429688 C 21.949219 362.8125 32.929688 368.253906 41.648438 370.460938 L 48.054688 372.082031 L 189.019531 372.082031 C 321.933594 372.082031 330.265625 372.007812 334.933594 370.8125 C 341.402344 369.152344 351.828125 364.15625 356.382812 360.527344 C 363.410156 354.933594 370.09375 344.226562 372.96875 333.960938 C 374.167969 329.6875 374.476562 326.589844 374.476562 318.917969 C 374.476562 299.984375 374.449219 299.917969 316.824219 188.476562 C 308.121094 171.644531 299.808594 155.3125 298.351562 152.183594 C 296.890625 149.050781 292.796875 141.203125 289.253906 134.746094 C 285.710938 128.289062 280.96875 119.320312 278.714844 114.820312 C 276.460938 110.320312 273.105469 103.914062 271.253906 100.585938 C 267.511719 93.851562 250.097656 60.007812 240.5 40.808594 C 233.574219 26.957031 228.824219 20.117188 222.894531 15.460938 C 215.6875 9.800781 205.972656 5.574219 196.183594 3.839844 C 191.574219 3.023438 188.941406 3.011719 182.949219 3.785156 M 195.703125 29.957031 C 195.285156 31.03125 194.148438 35.117188 193.171875 39.03125 C 192.195312 42.945312 190.632812 49.027344 189.695312 52.550781 C 187.363281 61.328125 186.722656 66.460938 185.742188 84.203125 C 184.503906 106.660156 185.445312 121.148438 189.753906 146.023438 C 195.449219 178.878906 208.894531 214.707031 226.386719 243.628906 C 236.144531 259.765625 239.886719 264.808594 253.054688 279.566406 C 274.464844 303.5625 298.800781 320.511719 329.90625 333.085938 C 334.210938 334.824219 338.554688 336.648438 339.554688 337.136719 C 342.164062 338.414062 343.472656 337.871094 345.632812 334.609375 C 351.914062 325.121094 351.570312 313.703125 344.550781 298.78125 C 339.378906 287.789062 323.433594 255.613281 320.566406 250.390625 C 314.203125 238.796875 308.222656 227.230469 292.609375 196.304688 C 283.519531 178.300781 275.839844 163.246094 275.542969 162.855469 C 274.6875 161.722656 265.796875 144.621094 260.007812 132.96875 C 257.09375 127.097656 252.222656 117.648438 249.183594 111.972656 C 246.148438 106.296875 240.136719 94.769531 235.828125 86.355469 C 231.519531 77.9375 226.09375 67.53125 223.765625 63.226562 C 221.441406 58.921875 217.804688 51.875 215.691406 47.570312 C 211.699219 39.449219 208.027344 34.957031 201.550781 30.265625 C 197.714844 27.492188 196.675781 27.4375 195.703125 29.957031 M 164.191406 42.769531 C 161.714844 45.285156 156.027344 55.035156 149.347656 68.207031 C 145.578125 75.644531 138.5 89.414062 133.617188 98.808594 C 128.734375 108.203125 121.824219 121.492188 118.261719 128.339844 C 113.683594 137.132812 109.074219 145.910156 104.4375 154.671875 C 100.394531 162.304688 90.25 181.839844 81.894531 198.082031 C 73.539062 214.328125 65.257812 230.179688 63.488281 233.308594 C 58.617188 241.945312 38.308594 282.859375 34.695312 291.320312 C 28.878906 304.9375 24.996094 318.351562 26.867188 318.351562 C 27.265625 318.351562 29.5625 314.910156 31.972656 310.703125 C 43.15625 291.203125 62.050781 270.316406 83.585938 253.640625 C 100.449219 240.589844 120.113281 230.855469 144.523438 223.484375 C 152.148438 221.179688 169.035156 218.167969 177.765625 217.554688 C 181.4375 217.296875 184.578125 216.859375 184.75 216.582031 C 184.921875 216.304688 183.941406 213.390625 182.570312 210.105469 C 175.710938 193.660156 167.910156 165.96875 164.453125 145.777344 C 160.84375 124.71875 160.550781 121.035156 160.546875 96.671875 C 160.542969 76.074219 160.738281 71.789062 162.15625 61.800781 C 163.042969 55.539062 164.269531 48.546875 164.882812 46.261719 C 166.117188 41.628906 165.984375 40.945312 164.191406 42.769531 M 192.996094 241.5 C 191.664062 241.816406 187.660156 242.273438 184.097656 242.519531 C 166.164062 243.765625 153.046875 246.347656 139.917969 251.214844 C 118.796875 259.046875 96.863281 273.40625 79.738281 290.609375 C 68.335938 302.058594 63.710938 307.855469 53.011719 324.089844 C 48.21875 331.359375 43.84375 337.761719 43.285156 338.324219 C 42.722656 338.886719 41.714844 340.1875 41.042969 341.214844 C 39.925781 342.925781 39.917969 343.125 40.96875 343.527344 C 41.601562 343.773438 42.625 343.972656 43.242188 343.972656 C 43.855469 343.972656 45.992188 344.726562 47.988281 345.652344 L 51.617188 347.335938 L 175.4375 347.398438 C 243.535156 347.433594 299.554688 347.277344 299.921875 347.050781 C 300.285156 346.828125 296.09375 344.316406 290.601562 341.472656 C 274.074219 332.921875 262.628906 324.253906 245.71875 307.488281 C 223.84375 285.800781 209.808594 267.183594 198.613281 245.019531 C 197.4375 242.6875 196.238281 240.816406 195.949219 240.855469 C 195.660156 240.894531 194.332031 241.183594 192.996094 241.5 "/></g></g></svg>