<svg xmlns="http://www.w3.org/2000/svg" xmlns:xlink="http://www.w3.org/1999/xlink" width="1000" zoomAndPan="magnify" viewBox="0 0 750 209.249992" height="279" preserveAspectRatio="xMidYMid meet" version="1.2"><defs><clipPath id="a54a17b2c1"><path d="M 1.339844 0 L 212 0 L 212 208.503906 L 1.339844 208.503906 Z M 1.339844 0 "/></clipPath><clipPath id="761b9e87a2"><path d="M 221 0 L 743 0 L 743 208.503906 L 221 208.503906 Z M 221 0 "/></clipPath><clipPath id="4354b7a230"><rect x="0" width="522" y="0" height="209"/></clipPath></defs><g id="20ed3aec68"><g clip-rule="nonzero" clip-path="url(#a54a17b2c1)"><path style=" stroke:none;fill-rule:evenodd;fill:#000000;fill-opacity:1;" d="M 104.21875 0.765625 C 99.933594 1.320312 92.628906 4.285156 88.425781 7.179688 C 85.992188 8.855469 82.609375 12.773438 80.503906 16.359375 C 79.519531 18.03125 76.777344 23.1875 74.410156 27.8125 C 66.589844 43.089844 62.910156 50.183594 60.183594 55.25 C 58.703125 58.003906 56.546875 62.152344 55.394531 64.464844 C 53.0625 69.148438 46.089844 82.53125 37.761719 98.3125 C 30.015625 112.988281 27.964844 116.953125 20.15625 132.359375 C 16.355469 139.847656 11.839844 148.679688 10.121094 151.984375 C 1.476562 168.578125 -0.0820312 179.261719 4.523438 190.328125 C 6.144531 194.226562 8.585938 197.945312 11.117188 200.378906 C 13.683594 202.84375 19.855469 205.910156 24.761719 207.148438 L 28.363281 208.0625 L 107.632812 208.0625 C 182.375 208.0625 187.0625 208.019531 189.6875 207.347656 C 193.324219 206.414062 199.1875 203.601562 201.75 201.558594 C 205.699219 198.410156 209.457031 192.382812 211.074219 186.605469 C 211.75 184.199219 211.921875 182.457031 211.921875 178.140625 C 211.921875 167.480469 211.90625 167.445312 179.503906 104.71875 C 174.609375 95.246094 169.933594 86.054688 169.113281 84.292969 C 168.292969 82.527344 165.992188 78.113281 164 74.476562 C 162.007812 70.84375 159.339844 65.796875 158.074219 63.261719 C 156.804688 60.730469 154.917969 57.125 153.878906 55.25 C 151.773438 51.460938 141.980469 32.410156 136.582031 21.605469 C 132.6875 13.808594 130.015625 9.957031 126.683594 7.335938 C 122.628906 4.152344 117.167969 1.773438 111.664062 0.796875 C 109.070312 0.335938 107.589844 0.332031 104.21875 0.765625 M 111.390625 15.496094 C 111.15625 16.101562 110.515625 18.402344 109.96875 20.605469 C 109.417969 22.808594 108.539062 26.230469 108.011719 28.214844 C 106.703125 33.15625 106.339844 36.042969 105.789062 46.03125 C 105.09375 58.671875 105.621094 66.824219 108.046875 80.824219 C 111.25 99.316406 118.808594 119.484375 128.644531 135.761719 C 134.132812 144.84375 136.238281 147.683594 143.644531 155.992188 C 155.683594 169.496094 169.367188 179.035156 186.859375 186.113281 C 189.28125 187.09375 191.722656 188.121094 192.285156 188.394531 C 193.753906 189.113281 194.488281 188.804688 195.703125 186.972656 C 199.234375 181.628906 199.042969 175.203125 195.09375 166.804688 C 192.1875 160.617188 183.21875 142.507812 181.605469 139.566406 C 178.027344 133.042969 174.667969 126.53125 165.886719 109.125 C 160.773438 98.992188 156.457031 90.519531 156.289062 90.300781 C 155.808594 89.664062 150.808594 80.035156 147.554688 73.476562 C 145.914062 70.171875 143.171875 64.855469 141.464844 61.660156 C 139.757812 58.464844 136.378906 51.976562 133.957031 47.242188 C 131.53125 42.503906 128.480469 36.644531 127.171875 34.222656 C 125.863281 31.800781 123.820312 27.832031 122.628906 25.410156 C 120.386719 20.839844 118.320312 18.3125 114.679688 15.671875 C 112.523438 14.109375 111.9375 14.078125 111.390625 15.496094 M 93.671875 22.707031 C 92.277344 24.125 89.078125 29.613281 85.324219 37.027344 C 83.203125 41.210938 79.222656 48.964844 76.476562 54.25 C 73.730469 59.539062 69.847656 67.019531 67.84375 70.875 C 65.265625 75.820312 62.675781 80.761719 60.070312 85.695312 C 57.796875 89.988281 52.089844 100.984375 47.390625 110.128906 C 42.691406 119.269531 38.035156 128.191406 37.042969 129.953125 C 34.300781 134.816406 22.882812 157.84375 20.847656 162.605469 C 17.578125 170.269531 15.394531 177.820312 16.449219 177.820312 C 16.671875 177.820312 17.960938 175.882812 19.320312 173.515625 C 25.605469 162.539062 36.230469 150.78125 48.34375 141.398438 C 57.824219 134.050781 68.882812 128.574219 82.609375 124.421875 C 86.898438 123.125 96.394531 121.429688 101.304688 121.085938 C 103.367188 120.941406 105.136719 120.695312 105.230469 120.539062 C 105.328125 120.382812 104.777344 118.742188 104.007812 116.894531 C 100.148438 107.636719 95.761719 92.050781 93.816406 80.6875 C 91.789062 68.835938 91.621094 66.761719 91.621094 53.046875 C 91.617188 41.453125 91.730469 39.042969 92.527344 33.421875 C 93.027344 29.898438 93.714844 25.960938 94.058594 24.671875 C 94.753906 22.066406 94.679688 21.683594 93.671875 22.707031 M 109.871094 134.5625 C 109.121094 134.742188 106.867188 135 104.867188 135.140625 C 94.78125 135.839844 87.402344 137.292969 80.019531 140.03125 C 68.144531 144.441406 55.808594 152.523438 46.179688 162.207031 C 39.769531 168.652344 37.167969 171.910156 31.148438 181.050781 C 28.453125 185.140625 25.992188 188.746094 25.679688 189.0625 C 25.363281 189.378906 24.796875 190.109375 24.417969 190.691406 C 23.789062 191.652344 23.785156 191.765625 24.378906 191.992188 C 24.734375 192.128906 25.308594 192.238281 25.65625 192.238281 C 26 192.238281 27.203125 192.667969 28.324219 193.1875 L 30.363281 194.132812 L 99.992188 194.167969 C 138.289062 194.191406 169.792969 194.101562 169.996094 193.976562 C 170.203125 193.847656 167.84375 192.433594 164.757812 190.835938 C 155.460938 186.019531 149.027344 181.144531 139.515625 171.707031 C 127.214844 159.5 119.320312 149.019531 113.027344 136.546875 C 112.367188 135.234375 111.691406 134.179688 111.53125 134.199219 C 111.367188 134.222656 110.621094 134.386719 109.871094 134.5625 "/></g><g clip-rule="nonzero" clip-path="url(#761b9e87a2)"><g transform="matrix(1,0,0,1,221,0)"><g clip-path="url(#4354b7a230)"><g style="fill:#000000;fill-opacity:1;"><g transform="translate(6.833596, 166.295672)"><path style="stroke:none" d="M 8.660156 32.941406 C 35.570312 26.910156 46.398438 13.457031 46.398438 -12.21875 L 46.398438 -123.726562 L 9.28125 -123.726562 L 9.28125 -16.703125 C 9.28125 -5.414062 6.03125 -0.929688 -5.105469 1.546875 Z M 8.660156 32.941406 "/></g></g><g style="fill:#000000;fill-opacity:1;"><g transform="translate(54.774952, 166.295672)"><path style="stroke:none" d="M 93.570312 -46.863281 C 93.570312 -80.113281 79.339844 -96.351562 49.800781 -96.351562 C 20.570312 -96.351562 5.722656 -79.496094 5.722656 -46.550781 C 5.722656 -12.992188 21.652344 2.9375 51.191406 2.9375 C 62.171875 2.9375 74.699219 0.773438 88.773438 -4.332031 L 80.578125 -29.695312 C 70.988281 -26.136719 62.019531 -24.28125 54.441406 -24.28125 C 44.234375 -24.28125 38.046875 -27.839844 37.273438 -35.882812 L 93.570312 -35.882812 Z M 50.109375 -71.761719 C 57.378906 -71.761719 61.398438 -68.050781 62.484375 -57.6875 L 37.429688 -57.6875 C 38.664062 -67.894531 42.839844 -71.761719 50.109375 -71.761719 Z M 50.109375 -71.761719 "/></g></g><g style="fill:#000000;fill-opacity:1;"><g transform="translate(146.327945, 166.295672)"><path style="stroke:none" d="M 80.421875 -28.765625 C 74.390625 -27.683594 69.289062 -26.910156 65.421875 -26.910156 C 58.308594 -26.910156 54.75 -29.386719 54.75 -37.582031 L 54.75 -66.503906 L 79.648438 -66.503906 L 79.648438 -93.570312 L 54.75 -93.570312 L 54.75 -116.613281 L 20.722656 -116.613281 L 20.722656 -93.570312 L 6.03125 -93.570312 L 6.03125 -66.503906 L 20.722656 -66.503906 L 20.722656 -32.789062 C 20.722656 -6.1875 34.335938 2.320312 58.460938 2.320312 C 65.886719 2.320312 74.238281 1.703125 83.207031 0.308594 Z M 80.421875 -28.765625 "/></g></g><g style="fill:#000000;fill-opacity:1;"><g transform="translate(220.404901, 166.295672)"><path style="stroke:none" d="M 80.421875 -28.765625 C 74.390625 -27.683594 69.289062 -26.910156 65.421875 -26.910156 C 58.308594 -26.910156 54.75 -29.386719 54.75 -37.582031 L 54.75 -66.503906 L 79.648438 -66.503906 L 79.648438 -93.570312 L 54.75 -93.570312 L 54.75 -116.613281 L 20.722656 -116.613281 L 20.722656 -93.570312 L 6.03125 -93.570312 L 6.03125 -66.503906 L 20.722656 -66.503906 L 20.722656 -32.789062 C 20.722656 -6.1875 34.335938 2.320312 58.460938 2.320312 C 65.886719 2.320312 74.238281 1.703125 83.207031 0.308594 Z M 80.421875 -28.765625 "/></g></g><g style="fill:#000000;fill-opacity:1;"><g transform="translate(302.524172, 166.295672)"><path style="stroke:none" d="M 5.722656 -33.714844 L 56.761719 -33.714844 L 56.761719 -63.101562 L 5.722656 -63.101562 Z M 5.722656 -33.714844 "/></g></g><g style="fill:#000000;fill-opacity:1;"><g transform="translate(357.270166, 166.295672)"><path style="stroke:none" d="M 61.863281 2.628906 C 97.125 2.628906 114.292969 -12.835938 114.292969 -43.769531 L 114.292969 -123.726562 L 77.792969 -123.726562 L 77.792969 -44.234375 C 77.792969 -33.871094 72.382812 -29.074219 61.863281 -29.074219 C 51.347656 -29.074219 45.933594 -33.871094 45.933594 -44.234375 L 45.933594 -123.726562 L 9.28125 -123.726562 L 9.28125 -43.769531 C 9.28125 -12.835938 26.601562 2.628906 61.863281 2.628906 Z M 61.863281 2.628906 "/></g></g><g style="fill:#000000;fill-opacity:1;"><g transform="translate(473.103397, 166.295672)"><path style="stroke:none" d="M 9.28125 0 L 46.398438 0 L 46.398438 -123.726562 L 9.28125 -123.726562 Z M 9.28125 0 "/></g></g></g></g></g></g></svg>