<svg xmlns="http://www.w3.org/2000/svg" xmlns:xlink="http://www.w3.org/1999/xlink" width="500" zoomAndPan="magnify" viewBox="0 0 375 374.999991" height="500" preserveAspectRatio="xMidYMid meet" version="1.2"><g id="af3f23b737"><path style=" stroke:none;fill-rule:evenodd;fill:#ffffff;fill-opacity:1;" d="M 182.804688 3.785156 C 175.191406 4.765625 162.210938 10.035156 154.742188 15.171875 C 150.417969 18.148438 144.40625 25.109375 140.667969 31.472656 C 138.921875 34.449219 134.046875 43.601562 129.839844 51.820312 C 115.941406 78.953125 109.40625 91.546875 104.5625 100.550781 C 101.929688 105.441406 98.101562 112.804688 96.054688 116.910156 C 91.910156 125.226562 79.519531 149 64.722656 177.023438 C 50.957031 203.085938 47.3125 210.132812 33.433594 237.488281 C 26.683594 250.792969 18.660156 266.480469 15.601562 272.347656 C 0.246094 301.816406 -2.527344 320.789062 5.65625 340.445312 C 8.539062 347.371094 12.875 353.976562 17.375 358.296875 C 21.933594 362.675781 32.902344 368.117188 41.617188 370.320312 L 48.019531 371.941406 L 188.871094 371.941406 C 321.683594 371.941406 330.007812 371.867188 334.671875 370.671875 C 341.136719 369.015625 351.554688 364.019531 356.105469 360.394531 C 363.128906 354.800781 369.808594 344.097656 372.679688 333.835938 C 373.878906 329.5625 374.1875 326.46875 374.1875 318.800781 C 374.1875 299.871094 374.160156 299.804688 316.578125 188.40625 C 307.882812 171.582031 299.574219 155.253906 298.117188 152.125 C 296.660156 148.996094 292.570312 141.152344 289.03125 134.695312 C 285.492188 128.238281 280.75 119.277344 278.5 114.777344 C 276.25 110.277344 272.894531 103.875 271.046875 100.550781 C 267.304688 93.816406 249.90625 59.984375 240.3125 40.792969 C 233.390625 26.945312 228.644531 20.109375 222.722656 15.453125 C 215.519531 9.792969 205.8125 5.570312 196.035156 3.835938 C 191.425781 3.023438 188.796875 3.011719 182.804688 3.785156 M 195.550781 29.945312 C 195.136719 31.019531 194 35.101562 193.023438 39.015625 C 192.046875 42.925781 190.484375 49.007812 189.550781 52.53125 C 187.21875 61.304688 186.578125 66.433594 185.601562 84.171875 C 184.359375 106.621094 185.300781 121.101562 189.609375 145.96875 C 195.296875 178.8125 208.734375 214.625 226.210938 243.535156 C 235.960938 259.667969 239.703125 264.707031 252.859375 279.460938 C 274.25 303.445312 298.570312 320.390625 329.648438 332.957031 C 333.953125 334.699219 338.292969 336.523438 339.292969 337.011719 C 341.902344 338.285156 343.207031 337.742188 345.363281 334.484375 C 351.640625 325 351.296875 313.585938 344.285156 298.667969 C 339.117188 287.679688 323.183594 255.515625 320.316406 250.296875 C 313.960938 238.707031 307.984375 227.144531 292.382812 196.230469 C 283.300781 178.230469 275.625 163.1875 275.332031 162.796875 C 274.472656 161.664062 265.589844 144.566406 259.808594 132.917969 C 256.894531 127.046875 252.027344 117.605469 248.992188 111.929688 C 245.957031 106.257812 239.949219 94.734375 235.644531 86.320312 C 231.339844 77.910156 225.917969 67.503906 223.59375 63.203125 C 221.269531 58.898438 217.636719 51.855469 215.523438 47.550781 C 211.535156 39.433594 207.867188 34.941406 201.394531 30.253906 C 197.5625 27.480469 196.523438 27.425781 195.550781 29.945312 M 164.0625 42.753906 C 161.589844 45.269531 155.90625 55.015625 149.234375 68.179688 C 145.46875 75.617188 138.390625 89.378906 133.511719 98.769531 C 128.632812 108.160156 121.730469 121.445312 118.171875 128.292969 C 113.59375 137.082031 108.988281 145.855469 104.355469 154.613281 C 100.316406 162.242188 90.179688 181.769531 81.832031 198.007812 C 73.480469 214.246094 65.207031 230.089844 63.441406 233.222656 C 58.570312 241.855469 38.277344 282.753906 34.667969 291.210938 C 28.859375 304.824219 24.976562 318.230469 26.847656 318.230469 C 27.242188 318.230469 29.539062 314.789062 31.949219 310.585938 C 43.121094 291.09375 62 270.214844 83.523438 253.546875 C 100.371094 240.5 120.023438 230.769531 144.410156 223.398438 C 152.03125 221.09375 168.902344 218.085938 177.628906 217.472656 C 181.296875 217.214844 184.4375 216.777344 184.609375 216.5 C 184.777344 216.222656 183.796875 213.308594 182.429688 210.023438 C 175.574219 193.589844 167.78125 165.90625 164.324219 145.722656 C 160.71875 124.671875 160.425781 120.988281 160.421875 96.636719 C 160.417969 76.042969 160.617188 71.761719 162.03125 61.777344 C 162.917969 55.519531 164.144531 48.527344 164.753906 46.242188 C 165.988281 41.613281 165.855469 40.929688 164.0625 42.753906 M 192.847656 241.410156 C 191.515625 241.722656 187.511719 242.183594 183.957031 242.429688 C 166.039062 243.671875 152.929688 246.253906 139.808594 251.121094 C 118.703125 258.949219 96.789062 273.304688 79.675781 290.5 C 68.285156 301.945312 63.664062 307.738281 52.96875 323.96875 C 48.183594 331.234375 43.808594 337.636719 43.25 338.199219 C 42.691406 338.757812 41.683594 340.058594 41.011719 341.085938 C 39.894531 342.796875 39.886719 342.996094 40.9375 343.398438 C 41.570312 343.644531 42.59375 343.839844 43.207031 343.839844 C 43.820312 343.839844 45.957031 344.597656 47.949219 345.523438 L 51.578125 347.203125 L 175.300781 347.269531 C 243.347656 347.304688 299.324219 347.148438 299.6875 346.921875 C 300.054688 346.695312 295.863281 344.1875 290.375 341.347656 C 273.863281 332.796875 262.425781 324.132812 245.527344 307.371094 C 223.671875 285.691406 209.644531 267.082031 198.460938 244.929688 C 197.285156 242.597656 196.085938 240.722656 195.796875 240.765625 C 195.511719 240.804688 194.183594 241.09375 192.847656 241.410156 "/></g></svg>